HIERARCHY
ROOT Hips
{
	OFFSET -3.958830 18.904000 13.208200
	CHANNELS 6 Xposition Yposition Zposition Zrotation Yrotation Xrotation 
	JOINT LHipJoint
	{
		OFFSET 0.000000 0.000000 0.000000
		CHANNELS 3 Zrotation Yrotation Xrotation
		JOINT LeftUpLeg
		{
			OFFSET 1.800000 -1.400000 0.085000
			CHANNELS 3 Zrotation Yrotation Xrotation
			JOINT LeftLeg
			{
				OFFSET 2.215000 -6.000000 0.000000
				CHANNELS 3 Zrotation Yrotation Xrotation
				JOINT LeftFoot
				{
					OFFSET 2.500000 -6.900000 0.000000
					CHANNELS 3 Zrotation Yrotation Xrotation
					JOINT LeftToeBase
					{
						OFFSET 0.200000 -0.500000 1.950000
						CHANNELS 3 Zrotation Yrotation Xrotation
						End Site
						{
							OFFSET 0.000000 0.000000 0.000000
						}
					}
				}
			}
		}
	}
	JOINT RHipJoint
	{
		OFFSET 0.000000 0.000000 0.000000
		CHANNELS 3 Zrotation Yrotation Xrotation
		JOINT RightUpLeg
		{
			OFFSET -1.800000 -1.400000 0.085000
			CHANNELS 3 Zrotation Yrotation Xrotation
			JOINT RightLeg
			{
				OFFSET -2.215000 -6.000000 0.000000
				CHANNELS 3 Zrotation Yrotation Xrotation
				JOINT RightFoot
				{
					OFFSET -2.500000 -6.900000 0.000000
					CHANNELS 3 Zrotation Yrotation Xrotation
					JOINT RightToeBase
					{
						OFFSET -0.200000 -0.500000 1.950000
						CHANNELS 3 Zrotation Yrotation Xrotation
						End Site
						{
							OFFSET 0.000000 0.000000 0.000000
						}
					}
				}
			}
		}
	}
	JOINT LowerBack
	{
		OFFSET 0.000000 0.000000 0.000000
		CHANNELS 3 Zrotation Yrotation Xrotation
		JOINT Spine
		{
			OFFSET -0.087000 1.940000 -0.288900
			CHANNELS 3 Zrotation Yrotation Xrotation
			JOINT Spine1
			{
				OFFSET 0.000000 1.950000 0.060000
				CHANNELS 3 Zrotation Yrotation Xrotation
				JOINT Neck
				{
					OFFSET 0.000000 0.000000 0.000000
					CHANNELS 3 Zrotation Yrotation Xrotation
					JOINT Neck1
					{
						OFFSET 0.000000 1.600000 0.340000
						CHANNELS 3 Zrotation Yrotation Xrotation
						JOINT Head
						{
							OFFSET 0.000000 1.667000 -0.240000
							CHANNELS 3 Zrotation Yrotation Xrotation
							End Site
							{
								OFFSET 0.000000 0.000000 0.000000
							}
						}
					}
				}
				JOINT LeftShoulder
				{
					OFFSET 0.000000 0.000000 0.000000
					CHANNELS 3 Zrotation Yrotation Xrotation
					JOINT LeftArm
					{
						OFFSET 2.700000 1.550000 -0.730000
						CHANNELS 3 Zrotation Yrotation Xrotation
						JOINT LeftForeArm
						{
							OFFSET 5.450000 0.000000 0.000000
							CHANNELS 3 Zrotation Yrotation Xrotation
							JOINT LeftHand
							{
								OFFSET 3.450000 0.000000 0.000000
								CHANNELS 3 Zrotation Yrotation Xrotation
								JOINT LeftHandIndex1
								{
									OFFSET 0.750000 0.000000 0.000000
									CHANNELS 3 Zrotation Yrotation Xrotation
									End Site
									{
										OFFSET 0.000000 0.000000 0.000000
									}
								}
							}
						}
					}
				}
				JOINT RightShoulder
				{
					OFFSET 0.000000 0.000000 0.000000
					CHANNELS 3 Zrotation Yrotation Xrotation
					JOINT RightArm
					{
						OFFSET -2.700000 1.550000 -0.730000
						CHANNELS 3 Zrotation Yrotation Xrotation
						JOINT RightForeArm
						{
							OFFSET -5.450000 0.000000 0.000000
							CHANNELS 3 Zrotation Yrotation Xrotation
							JOINT RightHand
							{
								OFFSET -3.450000 0.000000 0.000000
								CHANNELS 3 Zrotation Yrotation Xrotation
								JOINT RightHandIndex1
								{
									OFFSET -0.750000 0.000000 0.000000
									CHANNELS 3 Zrotation Yrotation Xrotation
									End Site
									{
										OFFSET 0.000000 0.000000 0.000000
									}
								}
							}
						}
					}
				}
			}
		}
	}
}
MOTION
Frames: 5
Frame Time: 0.016667
0.162540 16.816710 -2.317390 -4.295757 -3.230315 -3.731769 -14.603864 13.043356 3.430920 7.433334 -2.469748 -19.553062 -11.412469 7.470350 18.768316 0.472866 3.685182 3.024398 0.629930 0.506140 0.770210 18.518698 -11.908978 3.185550 1.204777 -0.592475 -5.121288 2.532158 -4.700126 15.695888 -0.638091 -3.360809 3.160271 -0.083760 -0.749810 0.225380 -4.600782 0.697858 -8.089170 32.066065 -1.516609 17.221503 -23.580076 7.057589 -7.968704 13.720411 6.987835 -14.231502 17.118942 -23.963926 51.355469 -13.312920 -13.014730 -10.923270 -27.918708 2.385936 1.067938 -46.808989 16.049911 -12.426380 -12.944577 -19.170139 0.437225 -2.665933 3.321289 0.364060 -0.538060 0.713830 0.174230 -3.036415 2.597153 14.710915 19.881849 -22.069098 -10.435879 -74.018546 51.102238 -31.750129 2.806513 -1.408228 0.452000 -0.334470 -0.642410 0.042010 
0.138610 16.803520 -2.318010 -4.575329 -3.095209 -3.371386 -14.710151 13.162240 3.537345 7.963303 -2.545560 -21.111204 -11.485420 7.821284 20.037483 0.479297 3.873063 2.938748 0.592770 0.449130 0.762090 18.401735 -11.747212 3.199366 1.627317 -0.444022 -5.380941 3.146509 -4.791923 15.820993 -0.614803 -3.325594 3.171849 -0.115870 -0.762600 0.227340 -4.290720 0.265229 -8.191099 30.310996 -1.197925 18.369937 -21.324978 7.658771 -10.860851 13.434438 7.132264 -14.134410 18.479894 -24.747876 50.178870 -14.805590 -12.291570 -10.911690 -28.383259 4.755672 0.214372 -46.723796 17.310659 -12.441115 -13.923451 -19.022469 0.603116 -2.670571 3.301533 0.383870 -0.538570 0.704610 0.148440 -2.325971 0.874255 14.808602 23.147198 -22.037530 -10.599961 -86.475124 51.450651 -41.339305 2.739210 -1.204752 0.435390 -0.356000 -0.619900 0.018860 
0.110320 16.787660 -2.313100 -4.873988 -2.935169 -2.779477 -14.823192 13.231823 3.648748 8.505919 -2.628025 -22.847934 -11.552541 8.173245 21.224965 0.482559 4.067305 2.852818 0.546940 0.382130 0.755850 18.289732 -11.589664 3.208366 2.149484 -0.275539 -5.811047 3.729123 -4.859390 15.871622 -0.581043 -3.284701 3.186371 -0.149150 -0.768660 0.230970 -3.979326 -0.088375 -8.280167 28.278077 -0.693408 19.173737 -18.710277 8.434834 -13.681635 12.994119 7.470210 -13.910675 20.179304 -25.616639 47.949261 -16.736930 -11.210480 -10.593940 -28.649136 7.538871 -0.815077 -46.598968 18.420094 -12.323717 -15.135015 -18.570380 0.797746 -2.691927 3.271640 0.394980 -0.526900 0.689020 0.120000 -1.538691 -1.520212 14.859975 26.689316 -21.910150 -10.226631 -99.683431 50.671374 -53.602906 2.762950 -1.115078 0.412770 -0.378620 -0.595830 -0.006630 
0.081710 16.771740 -2.306460 -5.079371 -2.734920 -2.204527 -14.934010 13.259642 3.747957 8.918456 -2.720918 -24.462977 -11.543416 8.477208 22.295933 0.477147 4.248543 2.775596 0.510830 0.317270 0.763760 18.188878 -11.457467 3.204172 2.529379 -0.107739 -6.244851 4.324421 -4.957853 15.980446 -0.550977 -3.267698 3.194323 -0.179370 -0.774110 0.240190 -3.687865 -0.349188 -8.337970 26.090334 -0.132339 19.773736 -15.996892 9.218492 -16.028076 12.422218 7.995945 -13.620995 22.036511 -26.440433 45.039503 -18.675470 -9.960630 -10.331230 -28.867347 10.091235 -1.764095 -46.482309 19.356879 -12.159919 -16.409983 -17.925676 0.966110 -2.719339 3.245180 0.406110 -0.508860 0.670460 0.092000 -0.475303 -4.065984 14.686393 30.335478 -21.886669 -9.882810 -111.886590 49.562657 -67.857649 2.852888 -1.206067 0.390350 -0.404600 -0.575530 -0.039380 
0.053280 16.755470 -2.298150 -5.237105 -2.475929 -1.708384 -15.038133 13.265476 3.823554 9.220614 -2.809605 -25.866567 -11.358159 8.698258 23.285583 0.466646 4.405144 2.710869 0.481730 0.263790 0.775600 18.100147 -11.347769 3.194039 2.789635 0.033625 -6.600972 4.985906 -5.103039 16.123546 -0.530193 -3.283093 3.186375 -0.201470 -0.772910 0.258300 -3.424055 -0.545349 -8.365919 23.886477 0.422507 20.152967 -13.255380 9.894350 -17.887638 11.822362 8.557438 -13.220784 23.764662 -27.078568 42.008635 -20.527240 -8.664410 -9.974000 -29.194062 12.332397 -2.622820 -46.321090 20.193728 -11.970102 -17.475959 -17.166049 1.076509 -2.750626 3.222548 0.412740 -0.482990 0.656760 0.070400 0.879066 -6.533585 14.206370 33.934768 -21.821320 -9.868526 -122.377662 48.739132 -82.808918 2.939644 -1.405090 0.370490 -0.429430 -0.560410 -0.067010 
